<?xml version="1.0" encoding="utf-8"?>
<!-- Generator: Adobe Illustrator 26.5.0, SVG Export Plug-In . SVG Version: 6.00 Build 0)  -->
<svg version="1.1" id="Layer_1" xmlns="http://www.w3.org/2000/svg" xmlns:xlink="http://www.w3.org/1999/xlink" x="0px" y="0px"
	 viewBox="0 0 2378.25 1174.23" style="enable-background:new 0 0 2378.25 1174.23;" xml:space="preserve">
<style type="text/css">
	.st0{fill:#FFFFFF;}
	.st1{font-family:'TimesNewRomanPSMT';}
	.st2{font-size:357px;}
	.st3{fill:none;stroke:#FFFFFF;stroke-width:12;stroke-miterlimit:10;}
	.st4{fill:none;}
</style>
<text transform="matrix(1 0 0 1 183.8327 831.175)" class="st0 st1 st2">Hackademics</text>
<circle class="st0" cx="1759.86" cy="599.27" r="35.29"/>
<rect x="1753.92" y="412.48" class="st0" width="11.86" height="173.59"/>
<path class="st3" d="M1995.67,407.66l-108.39,58.8c-8.23,4.46-21.57,4.46-29.8,0l-108.39-58.8c-8.23-4.46-8.23-11.7,0-16.17
	l108.39-58.8c8.23-4.46,21.57-4.46,29.8,0l108.39,58.8C2003.9,395.96,2003.9,403.2,1995.67,407.66z"/>
<rect x="1783.22" y="429.72" class="st0" width="12.36" height="111.99"/>
<path class="st0" d="M1963.45,541.71L1963.45,541.71c0,3.62-2.93,6.55-6.55,6.55h-167.13c-3.62,0-6.55-2.93-6.55-6.55l0,0
	c0-3.62,2.93-6.55,6.55-6.55h167.13C1960.52,535.16,1963.45,538.09,1963.45,541.71z"/>
<line class="st4" x1="1904.89" y1="531.32" x2="1904.89" y2="531.32"/>
<line class="st4" x1="1904.89" y1="516.9" x2="1904.89" y2="516.9"/>
<g transform="translate(0.000000,1262.000000) scale(0.100000,-0.100000)">
	<path class="st0" d="M7727.42,8738.76c-76.14-11.14-113.88-27.73-153.2-67.51l-16.82-17.05l-10.91-42.96
		c-24.09-95.01-39.78-199.79-50.23-337.08c-3.86-51.37-3.86-243.89,0-294.35c8.86-116.15,23.87-200.93,46.37-263.66
		c9.32-26.14,9.77-28.18,9.55-52.28c-0.45-28.18-5.91-50.46-20.23-81.83c-8.18-17.96-29.78-52.51-36.37-57.96
		c-2.73-2.27-7.5-1.82-26.82,2.96c-22.96,5.91-109.33,19.09-161.83,24.77c-20,2.05-70.92,2.96-188.65,2.96
		c-175.47,0-188.2-0.68-234.11-12.73c-14.09-3.41-43.64-9.77-66.14-13.64c-22.28-3.86-48.41-9.55-57.73-12.27
		c-35.91-10.91-75.01-24.78-102.51-36.37c-15.91-6.82-43.87-17.5-62.51-23.87c-18.64-6.59-51.82-18.87-73.64-27.73
		c-21.82-8.86-52.51-20.91-68.19-26.82c-15.68-5.91-41.14-17.5-56.6-25.91c-15.23-8.18-30.23-15-33.41-15s-12.5-4.09-20.68-9.09
		c-8.41-5-16.14-9.09-17.27-9.09c-2.95,0-63.19-22.73-73.19-27.96c-5-2.5-14.09-7.73-20.46-11.82c-6.14-4.09-17.73-10-25.46-13.18
		c-13.41-5.46-32.73-18.64-51.37-35c-5.46-5-10.68-7.5-15.23-7.5c-10.46,0-98.65-35-160.24-63.64c-11.14-5.23-27.5-12.05-36.14-15
		c-8.64-2.96-18.18-7.05-20.91-8.86c-2.96-1.82-6.82-3.41-8.64-3.41c-2.05,0-16.14-5.91-31.37-13.41
		c-32.73-15.68-56.6-25.23-62.73-25.23c-2.5,0-6.82-1.82-9.77-4.09s-11.14-7.5-17.96-11.59s-18.64-13.41-26.37-20.68
		c-11.82-11.36-15.46-13.41-25-14.77c-12.27-1.82-23.87-7.73-39.55-20.23c-5.68-4.55-11.14-8.18-12.5-8.18
		c-1.14,0-6.14-1.14-10.68-2.27c-6.82-2.05-9.77-4.77-15.68-15.46c-4.09-7.05-13.18-18.64-20.23-25.46
		c-6.82-6.82-13.41-15.46-14.77-19.09c-1.82-5.68-5.23-7.96-21.59-14.32c-43.19-16.59-75.92-35.23-153.2-86.83
		c-4.77-3.18-12.05-5.91-16.14-6.14c-5.23,0-11.14-3.41-21.37-11.82c-25.68-21.37-90.24-57.05-109.78-60.69
		c-4.77-0.91-8.64-2.73-8.64-4.32c0-1.36,2.05-8.64,4.55-16.14c4.32-12.73,4.32-13.64,0.68-15.68
		c-8.18-4.32-23.41-21.37-23.41-25.91c0-7.5,8.41-11.82,23.87-11.82c18.41,0,102.74,13.41,124.79,19.77
		c2.73,0.68,3.64,0.23,2.73-1.36c-0.91-1.36-3.41-2.5-5.68-2.5s-5.46-1.59-7.05-3.41c-1.59-1.82-10.23-7.5-19.55-12.5
		c-11.59-6.59-22.5-15.46-36.82-30.23c-44.55-45.69-64.1-74.78-59.32-87.28l1.82-5l15.46,4.32c8.41,2.5,20,5.68,25.68,7.05
		c5.68,1.36,12.96,3.86,16.37,5.68c20,10.68,115.69,40.69,155.7,48.64c13.41,2.73,29.78,7.5,36.37,10.46
		c12.05,5.68,49.32,15.46,68.42,17.96c5.91,0.91,20.46,3.41,32.5,5.91c11.82,2.27,50.23,7.96,85.24,12.5
		c68.42,8.86,103.87,9.55,115.01,2.27c2.95-1.82,11.82-4.55,20-5.91s17.27-3.64,20-4.77c2.95-1.14,20.46-4.55,39.09-7.5
		c29.32-4.77,45.46-9.55,124.1-35.69c50-16.59,96.37-31.82,103.19-34.09c45-14.32,179.79-47.96,207.98-52.05
		c8.86-1.14,31.37-5.46,50-9.32c18.87-3.86,39.78-7.96,46.6-8.86s20.68-3.86,30.68-6.36c39.1-10,126.83-19.77,171.84-18.87
		l30.91,0.45l2.05-9.77c0.91-5.46,1.82-47.5,1.82-93.87c0.23-65.69,0.91-86.15,3.41-93.19c4.55-12.96,1.82-66.82-5.23-105.24
		c-9.32-50-15.91-69.33-30.91-90.24c-16.59-22.96-20.46-30.68-20.46-40.91s7.05-14.77,32.73-21.59
		c34.55-8.86,36.14-9.77,69.33-42.05c75.01-72.96,96.6-85.24,143.42-82.28c21.82,1.36,47.05,9.55,55.91,17.73
		c3.86,3.64,6.14,4.55,7.27,2.73c2.5-3.86,22.96-18.87,29.09-21.14c2.95-1.14,15.91-3.64,28.41-5.68
		c48.41-7.27,117.97-29.55,143.88-46.37c33.19-21.37,80.24-32.5,103.65-24.55c5.68,2.05,10.23,6.36,16.37,15.68
		c10.91,16.37,17.27,20.91,40.69,28.18c28.18,8.64,31.37,10,36.14,16.37c5.91,7.27,5.68,17.27,0,26.82l-4.77,7.5l15.46,7.5
		c17.05,8.41,20.23,12.05,17.96,20.68c-2.96,12.27-30.69,22.05-71.83,25.46c-9.32,0.68-44.1,2.73-77.28,4.55
		c-78.87,4.09-119.1,10-142.51,20.91c-10.46,4.77-18.41,22.5-22.5,48.87c-6.14,40.91-3.41,99.33,10.46,223.43
		c8.18,73.19,8.18,79.33,2.05,96.15c-10.68,28.87-11.82,34.78-9.09,43.64c2.96,9.77,19.55,29.32,30.46,35.91
		c4.09,2.73,14.09,5.23,23.18,6.14c35.46,3.41,102.96,17.96,107.51,22.96c0.91,0.68-0.91,0.91-4.09,0
		c-8.64-2.05-1.36,1.14,36.37,15.68c51.82,20.23,83.87,38.41,117.74,66.82c9.32,7.5,32.5,24.55,51.6,37.73
		c19.32,13.18,42.73,30,52.05,37.5s28.18,21.82,41.59,32.05c52.51,39.78,113.65,97.06,141.83,132.51
		c10,12.73,23.64,29.55,30.46,37.73c22.5,26.37,54.32,77.05,77.73,123.65c10.91,22.05,24.77,42.73,57.51,86.6
		c31.59,42.28,41.14,57.05,52.73,83.42c23.18,51.82,31.37,84.78,37.28,149.56c4.09,45.23,3.41,70.23-2.73,99.33
		c-5.46,26.37-16.14,57.96-22.96,67.96c-3.18,5-9.32,16.82-13.41,26.37c-3.86,9.55-11.36,22.27-16.37,28.41
		c-5,5.91-15.91,24.55-24.32,41.14c-8.18,16.59-19.32,35.46-24.55,42.05c-5.23,6.36-9.55,12.96-9.77,14.09
		c-0.23,1.36-3.41,7.5-7.27,13.64c-13.86,22.5-66.6,147.51-83.19,197.06c-19.09,57.51-37.5,147.06-44.32,216.38
		c-3.18,31.59-3.18,123.19-0.23,153.88c7.05,69.78,27.05,152.06,45.69,188.88c5.91,11.82,10.68,14.32,40.91,22.05
		c14.55,3.86,38.41,12.05,53.41,18.41c14.77,6.36,38.19,14.55,52.05,17.96l25.46,6.59l77.05-2.5
		c142.29-4.32,162.74-3.18,184.11,11.82c5.23,3.64,12.96,7.73,17.5,9.09c16.59,5.68,16.14,12.05-2.27,29.09
		c-14.77,13.64-17.05,14.77-47.28,25c-20,6.59-47.05,18.41-72.73,31.59c-22.73,11.37-43.64,21.59-46.6,22.5
		c-3.18,0.91-17.27,7.73-31.37,15.46c-22.05,11.82-29.78,17.73-55.01,41.6c-57.28,54.32-92.74,70.92-154.56,72.51
		C7748.1,8739.44,7731.28,8739.21,7727.42,8738.76z M7653.77,7554.55c-7.96-3.18-14.77-5.23-15.46-4.77
		c-1.14,1.36,22.28,10.46,26.59,10.46C7666.73,7560.23,7661.73,7557.73,7653.77,7554.55z M6862.33,6510.13
		c13.18-6.59,29.55-12.96,36.37-14.32l12.05-2.5l7.96-19.77c4.32-10.91,10.46-22.27,13.41-25.23
		c10.91-10.91,28.87-58.87,50.46-135.92c15.91-56.37,17.5-66.6,14.09-95.24c-4.32-38.41-22.5-139.1-25.46-142.06
		c-0.45-0.68-9.09,2.96-19.09,7.96c-14.55,7.5-22.5,9.77-41.82,12.5c-17.96,2.73-27.96,5.46-40.46,11.59
		c-15.91,7.73-16.82,8.64-24.55,24.32c-4.55,9.09-11.36,19.77-14.77,23.87c-10,11.14-17.05,27.05-24.77,53.87
		c-8.18,29.55-12.27,56.6-17.27,117.06c-5.91,71.14-2.5,102.51,12.73,119.1c15,16.37,16.59,23.41,10.68,45
		c-3.64,13.41-2.5,23.64,3.41,30.69C6820.05,6526.95,6836.19,6523.08,6862.33,6510.13z"/>
</g>
<path class="st0" d="M1132.17,424.67c0,0,13.27-1.98,20.89-5.79s27.95-10.45,36.28-11.15c8.33-0.71,20.33-1.55,29.64-3.11
	c9.32-1.55,12.14-5.36,18.35-5.79c6.21-0.42,12.99,0.57,12.56-2.26c-0.42-2.82-6.35-5.08-10.45-5.65
	c-4.09-0.57-10.59-1.98-14.12-5.08c-3.53-3.11-7.76-6.92-17.36-4.8s-9.03,5.36-19.2,9.32c-10.16,3.95-25.41,9.32-36.56,11.29
	c-11.15,1.98-20.19,3.11-31.9,0.28c-11.72-2.82-26.68-9.18-46.44-9.74c-19.76-0.56-37.69-2.54-61.12,11.01
	c-23.43,13.55-47.15,24.28-54.91,28.66c-7.76,4.38-10.49,4.85-10.49,10.87c-12.05,0.19-16.19,6.21-15.81,8.85
	c0.38,2.63-1.69,6.96-5.08,9.03s-3.95,10.73-3.95,14.87c0,4.14,1.69,14.68,6.4,13.17c4.71-1.5,13.36-8.28,13.55-5.46
	s-7.53,15.44-3.76,16.75c3.76,1.32,13.74-3.01,19.76-6.21c6.02-3.2,20.89-7.9,24.28-12.23c3.39-4.33,6.02-11.29,10.73-8.85
	c4.71,2.45,17.5,12.24,33.31,18.82c15.81,6.59,39.9,14.49,49.22,17.6s20.33,6.49,22.3,6.78c1.98,0.28,0.85,0.42,3.67,2.96
	c2.82,2.54,3.67,2.54,6.92,2.12s7.34-3.95,7.48-1.41c0.14,2.54,0.28,11.01,6.63,12.99s8.89-1.84,9.74,1.69s2.96,4.52,6.92,6.35
	c3.95,1.84,7.62,0.99,9.03,2.96s7.06,5.79,9.74,5.79c2.68,0,1.55-5.51,5.36-2.26c3.81,3.25,4.94,8.05,11.15,8.05
	c6.21,0,3.81-8.19,7.2-6.21c3.39,1.98,5.36,6.07,11.43,6.21c6.07,0.14,6.35-8.05,5.93-10.87c-0.42-2.82,2.54-1.98,5.79,4.23
	c3.25,6.21,12,10.73,16.23,10.73c4.24,0,7.34-1.41,4.8-4.94c-2.54-3.53-9.32-14.82-6.92-14.54c2.4,0.28,9.32,11.43,15.39,14.26
	c6.07,2.82,18.63,2.82,13.69-0.28c-4.94-3.11-22.16-22.3-18.07-20.75c4.09,1.55,19.62,13.98,24.14,15.95
	c4.52,1.98,9.6,2.54,13.13,1.55s-0.99-4.09-5.65-6.35c-4.66-2.26-19.2-10.73-23.57-16.52c-0.85-1.13,3.81-0.14,5.36,1.41
	c1.55,1.55,8.19,5.79,18.63,8.89c10.45,3.11,15.67,2.54,15.67-0.42c0-2.96,0.14-3.25-11.01-6.92s-24.28-11.29-27.39-14.54
	s5.51,1.13,7.48,2.26c1.98,1.13,12.99,3.11,21.32,3.25s15.39-7.76,10.73-7.9s-7.48,1.55-25.97-3.11
	c-18.49-4.66-31.62-11.72-45.74-21.74s-34.87-26.54-41.78-31.9C1158.85,451.49,1144.31,434.41,1132.17,424.67z"/>
<path class="st0" d="M1630.57,338.04c0,0,15.54,1.72,17.34,0.95c1.8-0.77-1.29-2.92-7.3-4.81c-6.01-1.89-10.3-3.61-12.79-5.92
	c-2.49-2.32-9.1-5.75-14.6-4.55c-5.49,1.2-9.44,5.75-16.14,6.61c-6.7,0.86-30.65,2.53-48.81,3.05s-32.32,5.02-36.44-11.72
	s-3.86-36.57-1.29-44.3s4.51-13.39,1.16-19.32c-3.35-5.92-5.15-10.69-4.12-17.51c1.03-6.83-3.48-27.56-2.96-40.95
	s-0.26-16.74-1.16-21.25s-1.41-4.68-3.73-5.11c-2.32-0.43-1.29-6.09-3.01-6.01c-1.72,0.09-6.7,2.83-7.98,5.66
	c-1.29,2.83-2.66,4.72-5.66,6.78c-3.01,2.06-7.47,8.5-7.21,13.56c0.26,5.07,4.81,15.45,1.37,15.54c-3.44,0.09-6.18-7.38-6.18-11.07
	c0-3.69-1.37-10.13-2.58-9.44c-1.2,0.69-4.72,5.32-5.24,6.61c-0.51,1.29,1.03,8.07-1.03,8.67s-6.52-1.2-7.55,0.34
	c-1.03,1.55-1.12,5.06-2.15,6.01c-1.03,0.94-3.78,4.76,1.24,7.73c5.02,2.96,5.41,6.31,0.9,4.51s-8.37-4.77-10.3-3.99
	c-1.93,0.77-3.86,2.19-4.89,4.38s-3.35,3.73-3.61-2.19s-6.7-14.98-10.47-22.54c-3.78-7.55-13.48-29.1-16.83-35.03
	c-3.35-5.92-12.36-21.63-12.88-30.05c-0.52-8.41,0.13-14.77,0-20.95c-0.13-6.18-1.16-11.2-3.22-11.07
	c-2.06,0.13-5.28,5.54-5.28,9.92s0.51,14.17-0.9,13.78c-1.42-0.39-2.83-13.14-2.06-16.87c0.77-3.73,2.78-14.04-0.22-13.52
	c-3,0.51-7.64,8.37-7.12,12.75s3.73,19.57,1.67,19.96c-2.06,0.39-5.54-11.2-6.05-16.74s-2.58-9.66-3.99-9.27
	c-1.42,0.39-5.15,3.61-4.25,11.72s5.28,16.23,3.48,16.23s-6.7-10.56-7.86-15.32s-6.18-0.64-6.31,3.99
	c-0.13,4.64,4.38,16.48,5.02,21.89s-2.58,3.22-3.35,0.51c-0.77-2.7-2.83-8.63-4.38-6.44c-1.54,2.19-2.83,8.63-1.03,12.1
	c1.8,3.48,5.8,6.95,3.99,7.47c-1.8,0.51-7.6-2.58-7.47,0.77s-0.51,7.08,0.9,8.63c1.42,1.54,2.19,6.82,1.55,8.37
	c-0.64,1.54-0.26,6.05,1.03,7.21s3.35,3.73,2.45,5.54c-0.9,1.8,0.9,8.5,1.8,9.66s2.06,3.48,2.19,6.05c0.13,2.58,2.96,7.6,4.51,8.76
	c1.55,1.16,7.86,5.15,3.99,5.41c-3.86,0.26-5.32,1.89-3.26,5.32c2.06,3.43,6.52,5.84,5.67,8.93c-0.86,3.09-1.55,8.76-0.86,11.68
	c0.69,2.92,3.26,6.01,3.78,10.99c0.52,4.98,0.68,7.21,1.89,9.44c1.2,2.23,2.58,4.29,3.09,6.7c0.52,2.4,3.09,9.79,4.12,12.02
	c1.03,2.23,5.49,8.24,5.67,10.99c0.17,2.75,2.23,6.7,3.61,9.61c1.37,2.92,4.81,6.52,6.52,9.79c1.72,3.26,3.09,10.13,4.12,13.91
	s1.89,6.18,3.43,9.62c1.55,3.43,4.47,5.84,4.81,9.62c0.34,3.78,2.92,3.95,4.98,4.98c2.06,1.03,4.64-1.03,6.01,1.2
	s6.69,3.61,4.81,5.15c-1.89,1.55-15.11,7.21-17,9.44s-5.84,4.29-9.62,2.06s-15.11-6.01-16.48-5.32s-3.95,3.78-5.67,3.61
	c-1.72-0.17-5.66,1.06-6.01,2.68c-0.34,1.61-3.26,3.5-4.81,3.67c-1.54,0.17-2.23,1.89-1.89,3.78c0.34,1.89-0.86,3.78-2.23,4.12
	s-2.23,2.92-2.23,4.98s-1.54,3.95-1.03,8.07c0.52,4.12,1.2,7.9,4.29,11.33c3.09,3.43,2.75,4.29,8.76,3.26s14.94-8.76,17.69-9.62
	s7.55-0.52,7.55-0.52s-0.51,3.09-4.29,4.47c-3.78,1.37-18.55,8.24-19.92,10.47s-1.2,8.59-1.2,11.33c0,2.75-5.84,2.75-2.06,3.09
	c3.78,0.34,6.52-2.4,9.27-4.81c2.75-2.4,8.07-7.73,11.85-9.1s11.51-11.33,13.22-15.8c7.04,0.34,13.05-0.34,16.14,2.75
	c-3.44,4.81-5.15,9.1-10.3,10.13s-10.81,3.43-14.08,5.49c-3.26,2.06-10.13,6.35-9.96,7.04s2.58,3.61,0.34,5.32
	c-2.23,1.72-6.01,5.32-3.44,5.32s4.81,0.69,5.49,2.23c0.69,1.55,2.23,1.37,4.29-1.72s3.78-4.81,9.1-7.9s12.71-7.21,15.11-10.82
	c2.4-3.61,6.01-12.19,8.76-12.7s11.33,1.2,19.4,1.2c8.07,0,20.09-4.12,31.77-9.1c11.67-4.98,40.86-21.12,46.87-23.01
	s21.81-13.05,24.73-15.45c2.92-2.4,6.52-4.98,16.31-6.52c9.79-1.55,25.07-2.75,31.25-2.75s11.85-0.51,23.01,0.17
	c11.16,0.69,27.62,2.58,27.62,1.16c0-1.42-2.83-2.38-5.92-3.15C1634.75,341.28,1628.16,339.7,1630.57,338.04z"/>
<rect x="1951.09" y="429.72" class="st0" width="12.36" height="111.99"/>
</svg>
